<!-- <svg width="154" height="50" viewBox="0 0 154 50" fill="none" xmlns="http://www.w3.org/2000/svg">
<path d="M67.25 27C67.25 28.425 67.825 29.675 68.975 30.7C70.125 31.725 71.575 32.25 73.325 32.25C74.95 32.25 76.3 31.825 77.375 30.975C78.45 30.1 79.075 29 79.2 27.625C79.475 25.1 77.95 23.175 74.55 22.275L72.35 21.7C70.825 21.3 70.05 20.55 70.05 19.45C70.05 18.05 71.4 17.075 73.025 17.075C74.825 17.075 76.025 18.1 76.025 19.675H78.675C78.675 18.125 78.15 16.9 77.075 15.975C76.025 15.05 74.7 14.575 73.075 14.575C71.525 14.575 70.2 15.05 69.075 15.975C67.95 16.9 67.4 18.075 67.4 19.5C67.4 21.825 68.825 23.35 71.675 24.125L73.85 24.675C75.75 25.125 76.65 26.05 76.575 27.475C76.375 28.8 75.25 29.825 73.325 29.825C72.35 29.825 71.525 29.55 70.9 28.975C70.275 28.4 69.925 27.725 69.9 27H67.25ZM89.9334 26.6C89.9334 28.775 88.6334 29.75 86.9334 29.75C85.5084 29.75 84.5084 28.7 84.5084 26.825V20.325H81.9334V27.125C81.9084 30.4 83.5834 32.25 86.4584 32.25C87.7834 32.25 89.3084 31.525 89.9334 30.3V32H92.5084V20.325H89.9334V26.6ZM96.0715 20.325V37.675H98.6465V30.325C99.3465 31.55 100.871 32.25 102.546 32.25C104.171 32.25 105.521 31.7 106.646 30.575C107.771 29.45 108.346 28 108.346 26.175C108.346 24.375 107.771 22.9 106.646 21.775C105.521 20.65 104.171 20.075 102.546 20.075C100.946 20.075 99.3465 20.825 98.6465 22.05V20.325H96.0715ZM98.6715 26.225C98.6715 25.125 99.0215 24.25 99.6965 23.575C100.396 22.9 101.246 22.575 102.221 22.575C103.196 22.575 104.021 22.925 104.696 23.6C105.371 24.275 105.721 25.15 105.721 26.225C105.721 28.325 104.221 29.775 102.221 29.775C101.271 29.775 100.446 29.45 99.7215 28.825C99.0215 28.175 98.6715 27.3 98.6715 26.225ZM122.333 26.125C122.333 24.3 121.783 22.85 120.683 21.75C119.583 20.625 118.183 20.075 116.483 20.075C114.783 20.075 113.358 20.625 112.208 21.75C111.058 22.85 110.483 24.3 110.483 26.125C110.483 27.95 111.058 29.425 112.208 30.55C113.358 31.675 114.783 32.25 116.483 32.25C118.808 32.25 120.883 31.225 121.883 29.25L119.783 28.325C119.183 29.4 117.933 30 116.608 30C114.708 30 113.258 28.875 113.033 27.075H122.308C122.333 26.9 122.333 26.6 122.333 26.125ZM113.033 25.2C113.258 23.425 114.658 22.325 116.483 22.325C118.258 22.325 119.583 23.4 119.808 25.2H113.033ZM127.626 27.8C127.626 24.525 128.651 22.5 130.751 22.5C131.376 22.5 131.951 22.625 132.476 22.9L132.901 20.525C132.451 20.225 131.751 20.075 130.826 20.075C129.251 20.075 128.201 21.05 127.626 23V20.325H125.051V32H127.626V27.8ZM137.586 32V20.325H135.036V32H137.586ZM136.311 13.975C135.386 13.975 134.586 14.7 134.586 15.6C134.586 16.5 135.386 17.225 136.311 17.225C137.286 17.225 138.011 16.525 138.011 15.6C138.011 14.675 137.286 13.975 136.311 13.975ZM146.514 29.75C145.539 29.75 144.689 29.425 144.014 28.75C143.339 28.075 142.989 27.2 142.989 26.125C142.989 25.075 143.339 24.225 144.014 23.575C144.689 22.925 145.539 22.6 146.514 22.6C148.514 22.6 150.064 24.025 150.064 26.125C150.064 27.2 149.714 28.075 149.039 28.75C148.364 29.425 147.514 29.75 146.514 29.75ZM146.514 20.075C144.814 20.075 143.364 20.625 142.189 21.75C141.014 22.875 140.439 24.325 140.439 26.125C140.439 27.925 141.014 29.4 142.189 30.55C143.364 31.675 144.814 32.25 146.514 32.25C148.214 32.25 149.664 31.675 150.839 30.55C152.039 29.4 152.639 27.925 152.639 26.125C152.639 24.325 152.039 22.875 150.864 21.75C149.689 20.625 148.239 20.075 146.514 20.075Z" fill="#202124"/>
<path fill-rule="evenodd" clip-rule="evenodd" d="M20 1.90735e-06C8.95431 1.90735e-06 0 8.95431 0 20V30C0 41.0457 8.9543 50 20 50H30C41.0457 50 50 41.0457 50 30V20C50 8.95431 41.0457 1.90735e-06 30 1.90735e-06H20ZM33 12.4698L19.8375 25.2607C17.824 23.3025 17.824 20.1385 19.8375 18.1804L25.7195 12.4602C27.733 10.5117 30.9865 10.5117 33 12.4698ZM19.5102 38.881L29.0225 29.6304C31.0361 27.6722 31.0361 24.5083 29.0225 22.5501L19.5102 31.8008C17.4966 33.7589 17.4966 36.9229 19.5102 38.881ZM31.3336 26.0902C31.3336 25.8008 31.3039 25.5115 31.2642 25.2317C32.0676 27.0645 31.7006 29.2542 30.1731 30.7493L20.6608 40C20.4624 39.8071 20.2839 39.5949 20.1252 39.3826L29.5978 30.1706C30.7186 29.0805 31.3336 27.6336 31.3336 26.0902ZM28.1595 22.2993L23.944 26.4086L20.7104 25.5018L24.9755 21.3636L28.1595 22.2993Z" fill="#1967D2"/>
</svg> -->

<svg width="203" height="50" viewBox="0 0 203 50" fill="none" xmlns="http://www.w3.org/2000/svg">
<path fill-rule="evenodd" clip-rule="evenodd" d="M20 0C8.95431 0 0 8.95431 0 20V30C0 41.0457 8.9543 50 20 50H30C41.0457 50 50 41.0457 50 30V20C50 8.95431 41.0457 0 30 0H20ZM33 12.4698L19.8375 25.2607C17.824 23.3025 17.824 20.1385 19.8375 18.1804L25.7195 12.4602C27.733 10.5117 30.9865 10.5117 33 12.4698ZM19.5102 38.881L29.0225 29.6304C31.0361 27.6722 31.0361 24.5083 29.0225 22.5501L19.5102 31.8008C17.4966 33.7589 17.4966 36.9229 19.5102 38.881ZM31.3336 26.0902C31.3336 25.8008 31.3039 25.5115 31.2642 25.2317C32.0676 27.0645 31.7006 29.2542 30.1731 30.7493L20.6608 40C20.4624 39.8071 20.2839 39.5949 20.1252 39.3826L29.5978 30.1706C30.7186 29.0805 31.3336 27.6336 31.3336 26.0902ZM28.1595 22.2993L23.944 26.4086L20.7104 25.5018L24.9755 21.3636L28.1595 22.2993Z" fill="#1967D2"/>
<path d="M63.2227 37C62.7344 37 62.4902 36.7314 62.4902 36.1943V16.7998C62.4902 16.2627 62.7344 15.9941 63.2227 15.9941H70.2979C73.1201 15.9941 75.1611 16.5215 76.4209 17.5762C77.6904 18.6309 78.3252 20.0225 78.3252 21.751C78.3252 23.2744 77.8125 24.5537 76.7871 25.5889C75.7715 26.624 74.3213 27.2197 72.4365 27.376V27.4053C73.4326 28.1475 74.0918 28.7139 74.4141 29.1045C74.7363 29.4854 75.0977 30.0029 75.498 30.6572L78.8086 36.0332C79.209 36.6777 79.1211 37 78.5449 37H76.875C76.416 37 76.0742 36.8096 75.8496 36.4287L72.8027 31.1992C72.3633 30.4473 71.7334 29.71 70.9131 28.9873C70.0928 28.2646 69.0723 27.9033 67.8516 27.9033H65.3027V36.1943C65.3027 36.7314 65.0586 37 64.5703 37H63.2227ZM65.3027 25.501H69.5361C71.4404 25.501 72.9053 25.252 73.9307 24.7539C74.9561 24.2461 75.4688 23.1865 75.4688 21.5752C75.4688 20.3447 75 19.5098 74.0625 19.0703C73.125 18.6211 71.8506 18.3965 70.2393 18.3965H65.3027V25.501ZM81.665 29.3096C81.665 26.8877 82.2705 24.959 83.4814 23.5234C84.6924 22.0879 86.4258 21.3701 88.6816 21.3701C90.5566 21.3701 92.1094 22.0293 93.3398 23.3477C94.5801 24.6562 95.2002 26.751 95.2002 29.6318C95.2002 30.0713 95 30.291 94.5996 30.291H84.3896C84.5557 32.1758 85.0635 33.4893 85.9131 34.2314C86.7627 34.9639 87.7246 35.3301 88.7988 35.3301C89.9316 35.3301 90.8008 35.1396 91.4062 34.7588C92.0117 34.3779 92.4561 34.002 92.7393 33.6309C93.0518 33.2207 93.3545 33.1426 93.6475 33.3965L94.5117 34.1436C94.7363 34.3389 94.7363 34.6074 94.5117 34.9492C94.3262 35.2324 93.7939 35.6865 92.915 36.3115C92.0459 36.9365 90.6738 37.249 88.7988 37.249C86.3574 37.249 84.5557 36.5312 83.3936 35.0957C82.2412 33.6602 81.665 31.7314 81.665 29.3096ZM84.3311 28.3867H92.6074C92.5684 27.0195 92.2168 25.8232 91.5527 24.7979C90.8887 23.7627 89.9121 23.2451 88.623 23.2451C87.4902 23.2451 86.5283 23.626 85.7373 24.3877C84.9463 25.1396 84.4775 26.4727 84.3311 28.3867ZM97.9834 35.5645C97.6807 35.2812 97.6172 35.0176 97.793 34.7734L98.4521 33.8506C98.667 33.5576 98.9844 33.5723 99.4043 33.8945C99.9805 34.334 100.62 34.6855 101.323 34.9492C102.036 35.2129 102.847 35.3447 103.755 35.3447C104.292 35.3447 104.771 35.2812 105.19 35.1543C105.61 35.0176 105.977 34.7686 106.289 34.4072C106.611 34.0459 106.772 33.5625 106.772 32.957C106.772 32.6055 106.694 32.2734 106.538 31.9609C106.392 31.6484 106.157 31.3994 105.835 31.2139C105.522 31.0186 105.215 30.8672 104.912 30.7598C104.414 30.5742 103.916 30.4229 103.418 30.3057C102.93 30.1787 102.285 29.9883 101.484 29.7344C100.947 29.5684 100.439 29.334 99.9609 29.0312C99.4824 28.7188 99.0625 28.2988 98.7012 27.7715C98.3496 27.2441 98.1738 26.5166 98.1738 25.5889C98.1738 24.6416 98.4619 23.8262 99.0381 23.1426C99.6143 22.459 100.337 21.9951 101.206 21.751C102.075 21.4971 102.92 21.3701 103.74 21.3701C104.951 21.3701 105.923 21.5117 106.655 21.7949C107.397 22.0684 108.037 22.3955 108.574 22.7764C108.887 23.001 108.931 23.2598 108.706 23.5527L108.047 24.4316C107.842 24.7148 107.524 24.7051 107.095 24.4023C106.733 24.1484 106.221 23.9092 105.557 23.6846C104.893 23.46 104.312 23.3477 103.813 23.3477C103.198 23.3477 102.671 23.416 102.231 23.5527C101.792 23.6895 101.436 23.9238 101.162 24.2559C100.889 24.5879 100.752 24.9785 100.752 25.4277C100.752 25.7695 100.806 26.0771 100.913 26.3506C101.021 26.6143 101.221 26.8584 101.514 27.083C101.807 27.3076 102.217 27.4883 102.744 27.625C103.564 27.8398 104.312 28.0352 104.985 28.2109C105.669 28.3867 106.284 28.6016 106.831 28.8555C107.544 29.1875 108.091 29.5537 108.472 29.9541C108.862 30.3545 109.131 30.7891 109.277 31.2578C109.424 31.7168 109.497 32.2295 109.497 32.7959C109.497 33.8408 109.185 34.7246 108.56 35.4473C107.944 36.1699 107.256 36.6533 106.494 36.8975C105.732 37.1318 104.814 37.249 103.74 37.249C102.285 37.249 101.035 37.0439 99.9902 36.6338C98.9551 36.2139 98.2861 35.8574 97.9834 35.5645ZM112.383 31.6387V22.2783C112.383 21.8389 112.603 21.6191 113.042 21.6191H114.302C114.741 21.6191 114.961 21.8389 114.961 22.2783V30.9355C114.961 32.8496 115.278 34.0654 115.913 34.583C116.548 35.0908 117.334 35.3447 118.271 35.3447C119.502 35.3447 120.444 34.9688 121.099 34.2168C121.753 33.4551 122.08 32.1562 122.08 30.3203V22.2783C122.08 21.8389 122.3 21.6191 122.739 21.6191H123.999C124.438 21.6191 124.658 21.8389 124.658 22.2783V36.3408C124.658 36.7803 124.438 37 123.999 37H122.769C122.329 37 122.109 36.7803 122.109 36.3408V35.1689H122.051C121.416 35.8721 120.732 36.3945 120 36.7363C119.268 37.0781 118.374 37.249 117.319 37.249C115.61 37.249 114.36 36.751 113.569 35.7549C112.778 34.749 112.383 33.377 112.383 31.6387ZM129.478 37C129.038 37 128.818 36.7803 128.818 36.3408V22.2783C128.818 21.8389 129.038 21.6191 129.478 21.6191H130.708C131.147 21.6191 131.367 21.8389 131.367 22.2783V23.4502H131.426C132.061 22.7471 132.749 22.2246 133.491 21.8828C134.233 21.541 134.946 21.3701 135.63 21.3701C136.89 21.3701 137.856 21.6875 138.53 22.3223C139.214 22.9473 139.653 23.5771 139.849 24.2119H139.907C140.444 23.4111 141.123 22.7373 141.943 22.1904C142.764 21.6436 143.638 21.3701 144.565 21.3701C146.118 21.3701 147.29 21.873 148.081 22.8789C148.872 23.875 149.268 25.2422 149.268 26.9805V36.3408C149.268 36.7803 149.048 37 148.608 37H147.349C146.909 37 146.689 36.7803 146.689 36.3408V27.8301C146.689 25.916 146.45 24.6807 145.972 24.124C145.493 23.5576 144.756 23.2744 143.76 23.2744C142.783 23.2744 141.968 23.6943 141.313 24.5342C140.659 25.3643 140.332 26.6191 140.332 28.2988V36.3408C140.332 36.7803 140.112 37 139.673 37H138.413C137.974 37 137.754 36.7803 137.754 36.3408V27.8301C137.754 25.916 137.515 24.6807 137.036 24.124C136.558 23.5576 135.82 23.2744 134.824 23.2744C133.848 23.2744 133.032 23.6553 132.378 24.417C131.724 25.1689 131.396 26.4629 131.396 28.2988V36.3408C131.396 36.7803 131.177 37 130.737 37H129.478ZM154.058 37C153.618 37 153.398 36.7803 153.398 36.3408V22.2783C153.398 21.8389 153.618 21.6191 154.058 21.6191H155.288C155.728 21.6191 155.947 21.8389 155.947 22.2783V23.4502H156.006C156.641 22.7471 157.329 22.2246 158.071 21.8828C158.813 21.541 159.526 21.3701 160.21 21.3701C161.47 21.3701 162.437 21.6875 163.11 22.3223C163.794 22.9473 164.233 23.5771 164.429 24.2119H164.487C165.024 23.4111 165.703 22.7373 166.523 22.1904C167.344 21.6436 168.218 21.3701 169.146 21.3701C170.698 21.3701 171.87 21.873 172.661 22.8789C173.452 23.875 173.848 25.2422 173.848 26.9805V36.3408C173.848 36.7803 173.628 37 173.188 37H171.929C171.489 37 171.27 36.7803 171.27 36.3408V27.8301C171.27 25.916 171.03 24.6807 170.552 24.124C170.073 23.5576 169.336 23.2744 168.34 23.2744C167.363 23.2744 166.548 23.6943 165.894 24.5342C165.239 25.3643 164.912 26.6191 164.912 28.2988V36.3408C164.912 36.7803 164.692 37 164.253 37H162.993C162.554 37 162.334 36.7803 162.334 36.3408V27.8301C162.334 25.916 162.095 24.6807 161.616 24.124C161.138 23.5576 160.4 23.2744 159.404 23.2744C158.428 23.2744 157.612 23.6553 156.958 24.417C156.304 25.1689 155.977 26.4629 155.977 28.2988V36.3408C155.977 36.7803 155.757 37 155.317 37H154.058ZM177.144 29.3096C177.144 26.8877 177.749 24.959 178.96 23.5234C180.171 22.0879 181.904 21.3701 184.16 21.3701C186.035 21.3701 187.588 22.0293 188.818 23.3477C190.059 24.6562 190.679 26.751 190.679 29.6318C190.679 30.0713 190.479 30.291 190.078 30.291H179.868C180.034 32.1758 180.542 33.4893 181.392 34.2314C182.241 34.9639 183.203 35.3301 184.277 35.3301C185.41 35.3301 186.279 35.1396 186.885 34.7588C187.49 34.3779 187.935 34.002 188.218 33.6309C188.53 33.2207 188.833 33.1426 189.126 33.3965L189.99 34.1436C190.215 34.3389 190.215 34.6074 189.99 34.9492C189.805 35.2324 189.272 35.6865 188.394 36.3115C187.524 36.9365 186.152 37.249 184.277 37.249C181.836 37.249 180.034 36.5312 178.872 35.0957C177.72 33.6602 177.144 31.7314 177.144 29.3096ZM179.81 28.3867H188.086C188.047 27.0195 187.695 25.8232 187.031 24.7979C186.367 23.7627 185.391 23.2451 184.102 23.2451C182.969 23.2451 182.007 23.626 181.216 24.3877C180.425 25.1396 179.956 26.4727 179.81 28.3867ZM194.722 37C194.282 37 194.062 36.7803 194.062 36.3408V22.2783C194.062 21.8389 194.282 21.6191 194.722 21.6191H195.952C196.392 21.6191 196.611 21.8389 196.611 22.2783V24.0361H196.67C197.139 23.1572 197.69 22.4932 198.325 22.0439C198.96 21.5947 199.751 21.3701 200.698 21.3701C201.323 21.3701 201.763 21.4238 202.017 21.5312C202.241 21.6191 202.324 21.7656 202.266 21.9707L201.929 23.1719C201.88 23.3477 201.753 23.416 201.548 23.377C201.206 23.3086 200.884 23.2744 200.581 23.2744C199.438 23.2744 198.496 23.792 197.754 24.8271C197.012 25.8525 196.641 27.2539 196.641 29.0312V36.3408C196.641 36.7803 196.421 37 195.981 37H194.722Z" fill="black"/>
</svg>
